<svg xmlns="http://www.w3.org/2000/svg" xmlns:xlink="http://www.w3.org/1999/xlink" width="500" zoomAndPan="magnify" viewBox="0 0 375 374.999991" height="500" preserveAspectRatio="xMidYMid meet" version="1.0"><defs><g/><clipPath id="00dccafd88"><path d="M 133.996094 115 L 175 115 L 175 204 L 133.996094 204 Z M 133.996094 115 " clip-rule="nonzero"/></clipPath></defs><rect x="-37.5" width="450" fill="#ffffff" y="-37.499999" height="449.999989" fill-opacity="1"/><rect x="-37.5" width="450" fill="#000e12" y="-37.499999" height="449.999989" fill-opacity="1"/><path fill="#ffffff" d="M 190.089844 164.800781 L 190.089844 105.433594 L 184.503906 105.433594 L 182.511719 165.4375 Z M 190.089844 164.800781 " fill-opacity="1" fill-rule="evenodd"/><path fill="#ffffff" d="M 182.667969 91.308594 C 182.429688 90.351562 182.109375 89.394531 182.269531 88.359375 C 182.429688 87.398438 183.226562 86.441406 184.265625 86.523438 C 184.824219 86.523438 185.222656 86.601562 185.621094 86.203125 C 185.78125 86.042969 185.863281 85.882812 186.019531 85.644531 C 186.179688 85.484375 186.339844 85.324219 186.578125 85.324219 C 186.820312 85.324219 187.058594 85.40625 187.058594 85.644531 C 187.21875 85.644531 187.296875 85.722656 187.378906 85.804688 C 187.457031 85.722656 187.617188 85.722656 187.695312 85.644531 C 187.777344 85.40625 188.015625 85.324219 188.175781 85.324219 C 188.414062 85.324219 188.574219 85.484375 188.734375 85.644531 C 188.894531 85.804688 188.972656 86.042969 189.132812 86.203125 C 189.53125 86.601562 189.929688 86.523438 190.488281 86.523438 C 191.445312 86.441406 192.324219 87.398438 192.484375 88.359375 C 192.644531 89.316406 192.324219 90.351562 192.085938 91.308594 C 191.527344 93.625 191.367188 96.097656 191.765625 98.492188 C 191.925781 99.367188 192.484375 100.644531 192.324219 101.523438 C 192.164062 102.320312 191.207031 102.5625 190.96875 103.277344 C 190.730469 103.835938 190.570312 104.554688 190.808594 105.035156 C 190.011719 105.992188 188.972656 106.550781 187.9375 107.269531 C 187.855469 107.347656 187.695312 107.429688 187.617188 107.507812 C 187.539062 107.507812 187.539062 107.507812 187.457031 107.429688 C 187.378906 107.429688 187.378906 107.429688 187.296875 107.507812 C 187.21875 107.429688 187.058594 107.347656 186.980469 107.269531 C 185.941406 106.628906 184.902344 105.992188 184.105469 105.035156 C 184.34375 104.476562 184.1875 103.757812 183.945312 103.277344 C 183.628906 102.5625 182.667969 102.320312 182.511719 101.523438 C 182.351562 100.644531 182.988281 99.367188 183.070312 98.492188 C 183.386719 96.097656 183.308594 93.625 182.75 91.308594 Z M 182.667969 91.308594 " fill-opacity="1" fill-rule="evenodd"/><path fill="#ffffff" d="M 184.105469 105.832031 L 190.410156 105.832031 C 190.808594 105.832031 191.046875 105.511719 191.046875 105.195312 C 191.046875 104.796875 190.730469 104.554688 190.410156 104.554688 L 184.105469 104.554688 C 183.707031 104.554688 183.46875 104.875 183.46875 105.195312 C 183.46875 105.59375 183.785156 105.832031 184.105469 105.832031 Z M 184.105469 105.832031 " fill-opacity="1" fill-rule="evenodd"/><path fill="#ffffff" d="M 191.046875 90.191406 L 191.046875 90.671875 C 191.046875 91.070312 191.367188 91.46875 191.765625 91.550781 L 192.804688 91.707031 C 193.363281 91.789062 193.761719 91.390625 193.761719 90.832031 L 193.761719 90.035156 C 193.761719 89.476562 193.28125 89.074219 192.804688 89.15625 L 191.765625 89.316406 C 191.367188 89.394531 191.046875 89.714844 191.046875 90.191406 Z M 191.046875 90.191406 " fill-opacity="1" fill-rule="evenodd"/><path fill="#ffffff" d="M 191.046875 94.5 L 191.046875 94.980469 C 191.046875 95.378906 191.367188 95.777344 191.765625 95.859375 L 192.804688 96.019531 C 193.363281 96.097656 193.761719 95.699219 193.761719 95.140625 L 193.761719 94.34375 C 193.761719 93.785156 193.28125 93.382812 192.804688 93.464844 L 191.765625 93.625 C 191.367188 93.703125 191.046875 94.023438 191.046875 94.5 Z M 191.046875 94.5 " fill-opacity="1" fill-rule="evenodd"/><path fill="#ffffff" d="M 191.046875 98.8125 L 191.046875 99.289062 C 191.046875 99.6875 191.367188 100.085938 191.765625 100.167969 L 192.804688 100.328125 C 193.363281 100.40625 193.761719 100.007812 193.761719 99.449219 L 193.761719 98.652344 C 193.761719 98.171875 193.28125 97.773438 192.804688 97.773438 L 191.765625 97.933594 C 191.367188 98.011719 191.046875 98.332031 191.046875 98.8125 Z M 191.046875 98.8125 " fill-opacity="1" fill-rule="evenodd"/><path fill="#ffffff" d="M 183.46875 90.191406 L 183.46875 90.671875 C 183.46875 91.070312 183.148438 91.46875 182.75 91.550781 L 181.710938 91.707031 C 181.234375 91.789062 180.753906 91.390625 180.753906 90.832031 L 180.753906 90.035156 C 180.753906 89.476562 181.234375 89.074219 181.710938 89.15625 L 182.75 89.316406 C 183.148438 89.394531 183.46875 89.714844 183.46875 90.191406 Z M 183.46875 90.191406 " fill-opacity="1" fill-rule="evenodd"/><path fill="#ffffff" d="M 183.46875 94.5 L 183.46875 94.980469 C 183.46875 95.378906 183.148438 95.777344 182.75 95.859375 L 181.710938 96.019531 C 181.234375 96.097656 180.753906 95.699219 180.753906 95.140625 L 180.753906 94.34375 C 180.753906 93.785156 181.234375 93.382812 181.710938 93.464844 L 182.75 93.625 C 183.148438 93.703125 183.46875 94.023438 183.46875 94.5 Z M 183.46875 94.5 " fill-opacity="1" fill-rule="evenodd"/><path fill="#ffffff" d="M 183.46875 98.8125 L 183.46875 99.289062 C 183.46875 99.6875 183.148438 100.085938 182.75 100.167969 L 181.710938 100.328125 C 181.234375 100.40625 180.753906 100.007812 180.753906 99.449219 L 180.753906 98.652344 C 180.753906 98.171875 181.234375 97.773438 181.710938 97.773438 L 182.75 97.933594 C 183.148438 98.011719 183.46875 98.332031 183.46875 98.8125 Z M 183.46875 98.8125 " fill-opacity="1" fill-rule="evenodd"/><path fill="#ffffff" d="M 193.363281 191.929688 C 193.363281 191.292969 192.882812 190.8125 192.246094 190.8125 L 180.992188 190.8125 C 180.355469 190.8125 179.875 191.292969 179.875 191.929688 L 179.875 192.167969 C 179.875 192.808594 180.355469 193.285156 180.992188 193.285156 L 192.246094 193.285156 C 192.882812 193.285156 193.363281 192.808594 193.363281 192.167969 Z M 182.351562 162.246094 C 182.351562 160.96875 182.191406 160.652344 181.3125 161.609375 C 178.601562 164.71875 175.726562 175.574219 174.132812 179.882812 C 171.65625 186.585938 176.125 183.632812 182.351562 182.515625 Z M 174.851562 195.121094 C 175.886719 195.121094 176.765625 194.246094 176.765625 193.207031 C 176.765625 192.167969 175.886719 191.292969 174.851562 191.292969 C 173.8125 191.292969 172.933594 192.167969 172.933594 193.207031 C 172.933594 194.246094 173.8125 195.121094 174.851562 195.121094 Z M 174.851562 202.464844 C 175.886719 202.464844 176.765625 201.585938 176.765625 200.546875 C 176.765625 199.511719 175.886719 198.632812 174.851562 198.632812 C 173.8125 198.632812 172.933594 199.511719 172.933594 200.546875 C 172.933594 201.585938 173.8125 202.464844 174.851562 202.464844 Z M 168.546875 193.84375 C 167.507812 193.84375 166.632812 194.722656 166.632812 195.761719 C 166.632812 196.796875 167.507812 197.675781 168.546875 197.675781 C 169.582031 197.675781 170.460938 196.796875 170.460938 195.761719 C 170.460938 194.722656 169.582031 193.84375 168.546875 193.84375 Z M 168.546875 186.503906 C 167.507812 186.503906 166.632812 187.382812 166.632812 188.417969 C 166.632812 189.457031 167.507812 190.335938 168.546875 190.335938 C 169.582031 190.335938 170.460938 189.457031 170.460938 188.417969 C 170.460938 187.382812 169.582031 186.503906 168.546875 186.503906 Z M 186.578125 211.242188 C 178.839844 211.242188 171.976562 207.488281 167.667969 201.746094 C 164.554688 197.515625 163.039062 192.25 164.238281 187.144531 C 164.875 184.429688 166.074219 181.957031 167.90625 179.882812 C 170.140625 177.40625 173.253906 175.332031 173.8125 172.0625 C 174.691406 167.113281 169.183594 162.964844 169.902344 157.9375 C 169.984375 157.539062 170.140625 157.140625 170.460938 156.902344 C 171.5 156.101562 172.695312 157.21875 173.492188 158.175781 C 174.769531 159.613281 176.683594 160.8125 178.601562 160.492188 C 180.355469 160.171875 181.632812 158.496094 182.109375 156.742188 C 182.429688 155.542969 182.429688 154.109375 182.351562 152.75 C 182.269531 151.875 182.988281 151.074219 183.945312 151.074219 C 184.824219 150.996094 185.703125 151.074219 186.578125 151.15625 C 187.457031 150.996094 188.335938 150.996094 189.210938 151.074219 C 190.089844 151.074219 190.808594 151.875 190.808594 152.75 C 190.730469 154.109375 190.730469 155.542969 191.046875 156.742188 C 191.527344 158.496094 192.804688 160.171875 194.558594 160.492188 C 196.792969 160.890625 198.949219 159.214844 200.222656 157.539062 C 200.542969 157.140625 201.023438 156.820312 201.582031 156.742188 C 202.9375 156.582031 203.257812 157.617188 203.335938 158.578125 C 203.574219 163.363281 198.46875 167.511719 199.347656 172.222656 C 199.90625 175.492188 203.097656 177.566406 205.25 180.039062 C 207.085938 182.117188 208.285156 184.589844 208.921875 187.300781 C 210.117188 192.410156 208.601562 197.753906 205.492188 201.90625 C 201.183594 207.648438 194.320312 211.398438 186.578125 211.398438 Z M 186.578125 211.242188 " fill-opacity="1" fill-rule="evenodd"/><g clip-path="url(#00dccafd88)"><path fill="#ffffff" d="M 174.851562 124.027344 L 174.851562 115.648438 C 152.828125 122.269531 133.996094 143.8125 133.996094 179.082031 L 135.113281 179.082031 C 134.074219 190.414062 138.304688 203.023438 147.71875 203.023438 L 147.71875 161.609375 C 146.203125 161.609375 144.847656 161.925781 143.570312 162.566406 C 147.960938 141.582031 160.566406 129.050781 174.851562 124.027344 Z M 174.851562 124.027344 " fill-opacity="1" fill-rule="evenodd"/></g><path fill="#ffffff" d="M 241 179.164062 C 241 141.738281 221.371094 121.234375 199.507812 115.328125 L 199.507812 123.707031 C 214.027344 128.492188 227.035156 141.179688 231.425781 162.644531 C 230.148438 162.007812 228.789062 161.6875 227.273438 161.6875 L 227.273438 203.101562 C 236.769531 203.101562 240.917969 190.492188 239.882812 179.164062 Z M 241 179.164062 " fill-opacity="1" fill-rule="evenodd"/><path fill="#ffffff" d="M 155.539062 176.210938 L 155.539062 165.519531 C 155.539062 163.445312 153.863281 161.6875 151.710938 161.6875 L 149.476562 161.6875 L 149.476562 203.101562 L 151.710938 203.101562 C 153.785156 203.101562 155.539062 201.347656 155.539062 199.269531 L 155.539062 188.976562 C 152.984375 185.226562 152.984375 179.882812 155.539062 176.132812 Z M 155.539062 176.210938 " fill-opacity="1" fill-rule="evenodd"/><path fill="#ffffff" d="M 223.285156 161.6875 C 221.210938 161.6875 219.453125 163.363281 219.453125 165.519531 L 219.453125 176.050781 C 221.929688 179.800781 221.929688 185.148438 219.453125 188.816406 L 219.453125 199.269531 C 219.453125 201.347656 221.128906 203.101562 223.285156 203.101562 L 225.519531 203.101562 L 225.519531 161.6875 Z M 223.285156 161.6875 " fill-opacity="1" fill-rule="evenodd"/><g fill="#ffffff" fill-opacity="1"><g transform="translate(86.684649, 265.456498)"><g><path d="M 1.542969 0 L 12.097656 0 C 7.105469 -8.492188 5.199219 -16.679688 5.507812 -26.355469 C 5.609375 -29.703125 5.816406 -33.046875 6.175781 -36.289062 C 16.371094 -21.929688 22.855469 -5.351562 24.347656 0 L 39.480469 -36.34375 C 40.871094 -24.347656 40.355469 -11.015625 37.886719 0 L 52.453125 0 C 49.367188 -14.054688 49.367188 -31.761719 52.453125 -45.8125 L 41.796875 -45.8125 L 30.421875 -18.121094 C 24.246094 -26.253906 18.480469 -36.804688 16.113281 -45.8125 L 1.542969 -45.8125 C 4.683594 -31.761719 4.683594 -14.054688 1.542969 0 Z M 1.542969 0 "/></g></g></g><g fill="#ffffff" fill-opacity="1"><g transform="translate(140.679563, 265.456498)"><g><path d="M 2.984375 -3.347656 C 3.964844 -0.617188 6.640625 1.03125 9.523438 1.03125 C 14.105469 1.03125 20.074219 -0.257812 22.339844 -8.957031 C 21.929688 -6.230469 21.363281 -3.292969 20.539062 0 L 34.078125 0 C 30.988281 -12.613281 30.988281 -19.355469 34.078125 -31.964844 L 20.539062 -31.964844 C 24.195312 -9.832031 18.480469 -1.851562 14.464844 -1.851562 C 12.816406 -1.851562 11.425781 -3.191406 11.117188 -5.40625 C 10.039062 -12.25 16.164062 -24.65625 13.949219 -31.964844 L 0.410156 -31.964844 C 7.667969 -18.375 0.257812 -10.914062 2.984375 -3.347656 Z M 2.984375 -3.347656 "/></g></g></g><g fill="#ffffff" fill-opacity="1"><g transform="translate(176.144288, 265.456498)"><g><path d="M 1.90625 -5.199219 C 4.375 -0.976562 10.242188 1.03125 15.90625 1.03125 C 19.046875 1.03125 22.082031 0.410156 24.449219 -0.773438 C 27.796875 -2.472656 30.320312 -5.609375 30.320312 -9.472656 C 30.320312 -18.121094 20.539062 -19.765625 14.414062 -22.339844 C 7.722656 -25.121094 13.796875 -31.503906 16.113281 -31.503906 C 19.871094 -31.453125 20.382812 -29.082031 18.941406 -27.898438 C 15.597656 -25.070312 17.964844 -21.414062 22.648438 -21.929688 C 27.078125 -22.445312 29.1875 -25.273438 28.773438 -27.898438 C 28.261719 -31.347656 23.265625 -33.097656 17.8125 -33.097656 C 14.929688 -33.097656 11.890625 -32.585938 9.316406 -31.605469 C 0.207031 -28.054688 0.875 -19.253906 8.855469 -14.824219 C 11.839844 -13.179688 15.289062 -11.890625 17.65625 -10.242188 C 23.320312 -6.332031 19.816406 -0.617188 15.546875 -0.617188 C 14.414062 -0.617188 13.28125 -1.03125 12.199219 -1.90625 C 9.574219 -4.015625 9.316406 -7.464844 12.199219 -9.574219 C 9.523438 -11.683594 7.15625 -12.558594 5.25 -12.558594 C 1.441406 -12.558594 -0.308594 -9.058594 1.90625 -5.199219 Z M 1.90625 -5.199219 "/></g></g></g><g fill="#ffffff" fill-opacity="1"><g transform="translate(207.388247, 265.456498)"><g><path d="M 1.90625 -5.199219 C 4.375 -0.976562 10.242188 1.03125 15.90625 1.03125 C 19.046875 1.03125 22.082031 0.410156 24.449219 -0.773438 C 27.796875 -2.472656 30.320312 -5.609375 30.320312 -9.472656 C 30.320312 -18.121094 20.539062 -19.765625 14.414062 -22.339844 C 7.722656 -25.121094 13.796875 -31.503906 16.113281 -31.503906 C 19.871094 -31.453125 20.382812 -29.082031 18.941406 -27.898438 C 15.597656 -25.070312 17.964844 -21.414062 22.648438 -21.929688 C 27.078125 -22.445312 29.1875 -25.273438 28.773438 -27.898438 C 28.261719 -31.347656 23.265625 -33.097656 17.8125 -33.097656 C 14.929688 -33.097656 11.890625 -32.585938 9.316406 -31.605469 C 0.207031 -28.054688 0.875 -19.253906 8.855469 -14.824219 C 11.839844 -13.179688 15.289062 -11.890625 17.65625 -10.242188 C 23.320312 -6.332031 19.816406 -0.617188 15.546875 -0.617188 C 14.414062 -0.617188 13.28125 -1.03125 12.199219 -1.90625 C 9.574219 -4.015625 9.316406 -7.464844 12.199219 -9.574219 C 9.523438 -11.683594 7.15625 -12.558594 5.25 -12.558594 C 1.441406 -12.558594 -0.308594 -9.058594 1.90625 -5.199219 Z M 1.90625 -5.199219 "/></g></g></g><g fill="#ffffff" fill-opacity="1"><g transform="translate(238.632206, 265.456498)"><g><path d="M 1.75 0 L 15.289062 0 C 12.199219 -12.613281 12.199219 -19.355469 15.289062 -31.964844 L 1.75 -31.964844 C 4.789062 -19.355469 4.789062 -12.613281 1.75 0 Z M 8.699219 -36.910156 C 18.324219 -37.988281 18.375 -48.800781 8.699219 -47.71875 C -1.03125 -46.585938 -0.976562 -35.828125 8.699219 -36.910156 Z M 8.699219 -36.910156 "/></g></g></g><g fill="#ffffff" fill-opacity="1"><g transform="translate(255.978523, 265.456498)"><g><path d="M 16.113281 1.03125 C 25.890625 1.03125 31.296875 -6.382812 31.296875 -15.957031 C 31.296875 -25.53125 25.890625 -32.894531 16.113281 -32.894531 C 6.332031 -32.894531 1.03125 -25.53125 1.03125 -15.957031 C 1.03125 -6.382812 6.332031 1.03125 16.113281 1.03125 Z M 18.738281 -30.9375 C 25.324219 -31.710938 21.414062 -1.75 13.847656 -0.875 C 6.175781 0.0507812 10.707031 -30.011719 18.738281 -30.9375 Z M 18.738281 -30.9375 "/></g></g></g></svg>